<svg width="79" height="20" viewBox="0 0 79 20" xmlns="http://www.w3.org/2000/svg" xmlns:xlink="http://www.w3.org/1999/xlink"><title>AB766F74-8E6C-4EB6-80A3-64467A4EA355</title><defs><path id="a" d="M53.65.138H0v19.505h53.65V.137z"/></defs><g fill="none" fill-rule="evenodd"><path d="M69.712 12.2v-1.984h-5.344V7.432h4.896V5.448h-4.896V2.984h5.264V1H62v11.2h7.712zm4.64-7.84c1.072 0 1.888.496 2.304 1.184V1h2.304v11.2h-2.224v-1.104c-.4.688-1.184 1.328-2.496 1.328-1.872 0-3.344-1.536-3.344-4.032 0-2.48 1.52-4.032 3.456-4.032zm2.32 4.272v-.464c0-1.392-.864-2.032-1.712-2.032-1.056 0-1.712.976-1.712 2.256 0 1.296.624 2.256 1.632 2.256.88 0 1.792-.624 1.792-2.016zM50.796 11.291h-4.204v4.286h4.204v4.286H55V11.29z" fill="#FFF"/><g transform="translate(0 .22)"><mask id="b" fill="#fff"><use xlink:href="#a"/></mask><path d="M53.521 2.191c-.44-.304-.9-.57-1.372-.808a11.551 11.551 0 0 0-5.22-1.246c-3.104 0-5.928 1.231-8.036 3.237l.962-3.017h-4.378l-3.955 12.401L27.567.357h-4.008l-3.955 12.401L15.649.357H0v4.286h4.554v15h4.554v-15h3.529l4.783 15h4.361l3.793-11.75 3.758 11.75h4.375l1.654-5.195v-.002a12.151 12.151 0 0 0 2.36 5.197h4.661v-1.257a7.835 7.835 0 0 1-3.077-6.23c0-4.286 3.42-7.773 7.624-7.773 1.39 0 2.732.383 3.912 1.104.117.072.235.143.35.222l.13.09 2.33-3.519-.13-.089z" fill="#FFF" mask="url(#b)"/></g></g></svg>